<svg xmlns="http://www.w3.org/2000/svg" width="489" height="54" viewBox="0 0 489 54" role="img" aria-label="Railroad diagram for the predicateOptions rule"><style>.rr-track{fill:none;stroke:#6B7280;stroke-width:2}.rr-term{fill:#fff;stroke:#15B879;stroke-width:2}.rr-nonterm{fill:#F5F6F3;stroke:#16181D;stroke-width:2}.rr-text{fill:#16181D;font:13px ui-monospace,SFMono-Regular,Menlo,Consolas,monospace}.rr-cap{fill:#16181D}</style><circle class="rr-cap" cx="14" cy="27" r="3"/><circle class="rr-cap" cx="475" cy="27" r="3"/><path class="rr-track" d="M14 27 H26"/><path class="rr-track" d="M463 27 H475"/><path class="rr-track" d="M26 27 H48"/><rect class="rr-term" x="48" y="14" width="38" height="26" rx="13"/><text class="rr-text" x="67" y="27" text-anchor="middle" dominant-baseline="central">LT</text><path class="rr-track" d="M86 27 H104"/><rect class="rr-term" x="104" y="14" width="45" height="26" rx="13"/><text class="rr-text" x="126.5" y="27" text-anchor="middle" dominant-baseline="central">Sep</text><path class="rr-track" d="M149 27 H167"/><rect class="rr-nonterm" x="167" y="14" width="139" height="26" rx="5"/><text class="rr-text" x="236.5" y="27" text-anchor="middle" dominant-baseline="central">predicateOption</text><path class="rr-track" d="M306 27 H324"/><rect class="rr-term" x="324" y="14" width="61" height="26" rx="13"/><text class="rr-text" x="354.5" y="27" text-anchor="middle" dominant-baseline="central">COMMA</text><path class="rr-track" d="M385 27 H403"/><rect class="rr-term" x="403" y="14" width="38" height="26" rx="13"/><text class="rr-text" x="422" y="27" text-anchor="middle" dominant-baseline="central">GT</text><path class="rr-track" d="M441 27 H463"/></svg>
