<svg xmlns="http://www.w3.org/2000/svg" width="553" height="98" viewBox="0 0 553 98" role="img" aria-label="Railroad diagram for the ClassTail rule"><style>.rr-track{fill:none;stroke:#6B7280;stroke-width:2.5}.rr-term{fill:#fff;stroke:#15B879;stroke-width:2.5}.rr-nonterm{fill:#F5F6F3;stroke:#16181D;stroke-width:2.5}.rr-text{fill:#16181D;font:14px 'Fira Code',ui-monospace,SFMono-Regular,Menlo,Consolas,monospace;font-feature-settings:"liga" 1,"calt" 1;}.rr-action-text{fill:#6B7280;font:14px 'Fira Code',ui-monospace,SFMono-Regular,Menlo,Consolas,monospace;font-style:italic;font-feature-settings:"liga" 1,"calt" 1;}.rr-cap{fill:#16181D}</style><circle class="rr-cap" cx="18" cy="65" r="4"/><circle class="rr-cap" cx="535" cy="65" r="4"/><path class="rr-track" d="M18 65 H34"/><path class="rr-track" d="M519 65 H535"/><path class="rr-track" d="M34 65 H62"/><g class="rr-node rr-node-nonterm" data-rr-kind="nonterminal" data-rr-label="ClassHeritage"><title>nonterminal: ClassHeritage</title><rect class="rr-nonterm" x="74" y="50" width="135" height="30" rx="8"/><text class="rr-text" x="141.5" y="65" text-anchor="middle" dominant-baseline="central">ClassHeritage</text></g><path class="rr-track" d="M62 65 Q62 34 74 34 H209 Q221 34 221 65"/><path class="rr-track" d="M221 65 H245"/><g class="rr-node rr-node-term" data-rr-kind="terminal" data-rr-label="{"><title>terminal: {</title><rect class="rr-term" x="245" y="50" width="36" height="30" rx="15"/><text class="rr-text" x="263" y="65" text-anchor="middle" dominant-baseline="central">{</text></g><path class="rr-track" d="M281 65 H305"/><g class="rr-node rr-node-nonterm" data-rr-kind="nonterminal" data-rr-label="ClassBody"><title>nonterminal: ClassBody</title><rect class="rr-nonterm" x="317" y="50" width="102" height="30" rx="8"/><text class="rr-text" x="368" y="65" text-anchor="middle" dominant-baseline="central">ClassBody</text></g><path class="rr-track" d="M305 65 Q305 34 317 34 H419 Q431 34 431 65"/><path class="rr-track" d="M431 65 H455"/><g class="rr-node rr-node-term" data-rr-kind="terminal" data-rr-label="}"><title>terminal: }</title><rect class="rr-term" x="455" y="50" width="36" height="30" rx="15"/><text class="rr-text" x="473" y="65" text-anchor="middle" dominant-baseline="central">}</text></g><path class="rr-track" d="M491 65 H519"/></svg>
