<svg xmlns="http://www.w3.org/2000/svg" width="658" height="116" viewBox="0 0 658 116" role="img" aria-label="Railroad diagram for the LogicalORExpressionNoIn rule"><style>.rr-track{fill:none;stroke:#6B7280;stroke-width:2.5}.rr-term{fill:#fff;stroke:#15B879;stroke-width:2.5}.rr-nonterm{fill:#F5F6F3;stroke:#16181D;stroke-width:2.5}.rr-text{fill:#16181D;font:14px 'Fira Code',ui-monospace,SFMono-Regular,Menlo,Consolas,monospace;font-feature-settings:"liga" 1,"calt" 1;}.rr-action-text{fill:#6B7280;font:14px 'Fira Code',ui-monospace,SFMono-Regular,Menlo,Consolas,monospace;font-style:italic;font-feature-settings:"liga" 1,"calt" 1;}.rr-cap{fill:#16181D}</style><circle class="rr-cap" cx="18" cy="33" r="4"/><circle class="rr-cap" cx="640" cy="33" r="4"/><path class="rr-track" d="M18 33 H34"/><path class="rr-track" d="M624 33 H640"/><path class="rr-track" d="M34 33 H62"/><g class="rr-node rr-node-nonterm" data-rr-kind="nonterminal" data-rr-label="LogicalANDExpressionNoIn"><title>nonterminal: LogicalANDExpressionNoIn</title><rect class="rr-nonterm" x="62" y="18" width="225" height="30" rx="8"/><text class="rr-text" x="174.5" y="33" text-anchor="middle" dominant-baseline="central">LogicalANDExpressionNoIn</text></g><path class="rr-track" d="M287 33 H596"/><path class="rr-track" d="M596 33 H624"/><path class="rr-track" d="M18 33 Q34 33 34 49 V67 Q34 83 50 83 H62"/><g class="rr-node rr-node-nonterm" data-rr-kind="nonterminal" data-rr-label="LogicalORExpressionNoIn"><title>nonterminal: LogicalORExpressionNoIn</title><rect class="rr-nonterm" x="62" y="68" width="217" height="30" rx="8"/><text class="rr-text" x="170.5" y="83" text-anchor="middle" dominant-baseline="central">LogicalORExpressionNoIn</text></g><path class="rr-track" d="M279 83 H303"/><g class="rr-node rr-node-term" data-rr-kind="terminal" data-rr-label="||"><title>terminal: ||</title><rect class="rr-term" x="303" y="68" width="44" height="30" rx="15"/><text class="rr-text" x="325" y="83" text-anchor="middle" dominant-baseline="central">||</text></g><path class="rr-track" d="M347 83 H371"/><g class="rr-node rr-node-nonterm" data-rr-kind="nonterminal" data-rr-label="LogicalANDExpressionNoIn"><title>nonterminal: LogicalANDExpressionNoIn</title><rect class="rr-nonterm" x="371" y="68" width="225" height="30" rx="8"/><text class="rr-text" x="483.5" y="83" text-anchor="middle" dominant-baseline="central">LogicalANDExpressionNoIn</text></g><path class="rr-track" d="M596 83 H608 Q624 83 624 67 V49 Q624 33 640 33"/></svg>
