<svg xmlns="http://www.w3.org/2000/svg" width="1047" height="436" viewBox="0 0 1047 436" role="img" aria-label="Railroad diagram for the MethodDefinition rule"><style>.rr-track{fill:none;stroke:#6B7280;stroke-width:2.5}.rr-term{fill:#fff;stroke:#15B879;stroke-width:2.5}.rr-nonterm{fill:#F5F6F3;stroke:#16181D;stroke-width:2.5}.rr-text{fill:#16181D;font:14px 'Fira Code',ui-monospace,SFMono-Regular,Menlo,Consolas,monospace;font-feature-settings:"liga" 1,"calt" 1;}.rr-action-text{fill:#6B7280;font:14px 'Fira Code',ui-monospace,SFMono-Regular,Menlo,Consolas,monospace;font-style:italic;font-feature-settings:"liga" 1,"calt" 1;}.rr-cap{fill:#16181D}.rr-arrow{fill:#6B7280}</style><circle class="rr-cap" cx="18" cy="73" r="4"/><circle class="rr-cap" cx="1029" cy="73" r="4"/><path class="rr-track" d="M18 73 H34"/><path class="rr-track" d="M1013 73 H1029"/><path class="rr-track" d="M34 73 H62"/><g class="rr-node rr-node-nonterm" data-rr-kind="nonterminal" data-rr-label="ClassElementName"><title>nonterminal: ClassElementName</title><rect class="rr-nonterm" x="62" y="58" width="159" height="30" rx="8"/><text class="rr-text" x="141.5" y="73" text-anchor="middle" dominant-baseline="central">ClassElementName</text></g><path class="rr-track" d="M221 73 H245"/><g class="rr-node rr-node-term" data-rr-kind="terminal" data-rr-label="("><title>terminal: (</title><rect class="rr-term" x="245" y="58" width="36" height="30" rx="15"/><text class="rr-text" x="263" y="73" text-anchor="middle" dominant-baseline="central">(</text></g><path class="rr-track" d="M281 73 H305"/><path class="rr-track" d="M305 73 H329"/><g class="rr-node rr-node-nonterm" data-rr-kind="nonterminal" data-rr-label="UniqueFormalParameters"><title>nonterminal: UniqueFormalParameters</title><rect class="rr-nonterm" x="329" y="58" width="208" height="30" rx="8"/><text class="rr-text" x="433" y="73" text-anchor="middle" dominant-baseline="central">UniqueFormalParameters</text></g><path class="rr-track" d="M537 73 H561"/><path class="rr-track" d="M305 73 Q317 73 317 61 V45 Q317 33 329 33 H537 Q549 33 549 45 V61 Q549 73 561 73"/><path class="rr-track" d="M561 73 H585"/><g class="rr-node rr-node-term" data-rr-kind="terminal" data-rr-label=")"><title>terminal: )</title><rect class="rr-term" x="585" y="58" width="36" height="30" rx="15"/><text class="rr-text" x="603" y="73" text-anchor="middle" dominant-baseline="central">)</text></g><path class="rr-track" d="M621 73 H645"/><g class="rr-node rr-node-term" data-rr-kind="terminal" data-rr-label="{"><title>terminal: {</title><rect class="rr-term" x="645" y="58" width="36" height="30" rx="15"/><text class="rr-text" x="663" y="73" text-anchor="middle" dominant-baseline="central">{</text></g><path class="rr-track" d="M681 73 H705"/><path class="rr-track" d="M705 73 H729"/><g class="rr-node rr-node-nonterm" data-rr-kind="nonterminal" data-rr-label="FunctionBody"><title>nonterminal: FunctionBody</title><rect class="rr-nonterm" x="729" y="58" width="126" height="30" rx="8"/><text class="rr-text" x="792" y="73" text-anchor="middle" dominant-baseline="central">FunctionBody</text></g><path class="rr-track" d="M855 73 H879"/><path class="rr-track" d="M705 73 Q717 73 717 61 V45 Q717 33 729 33 H855 Q867 33 867 45 V61 Q867 73 879 73"/><path class="rr-track" d="M879 73 H903"/><g class="rr-node rr-node-term" data-rr-kind="terminal" data-rr-label="}"><title>terminal: }</title><rect class="rr-term" x="903" y="58" width="36" height="30" rx="15"/><text class="rr-text" x="921" y="73" text-anchor="middle" dominant-baseline="central">}</text></g><path class="rr-track" d="M939 73 H985"/><path class="rr-track" d="M985 73 H1013"/><path class="rr-track" d="M18 73 Q34 73 34 89 V107 Q34 123 50 123 H62"/><g class="rr-node rr-node-nonterm" data-rr-kind="nonterminal" data-rr-label="GeneratorMethod"><title>nonterminal: GeneratorMethod</title><rect class="rr-nonterm" x="62" y="108" width="151" height="30" rx="8"/><text class="rr-text" x="137.5" y="123" text-anchor="middle" dominant-baseline="central">GeneratorMethod</text></g><path class="rr-track" d="M213 123 H985"/><path class="rr-track" d="M985 123 H997 Q1013 123 1013 107 V89 Q1013 73 1029 73"/><path class="rr-track" d="M18 73 Q34 73 34 89 V157 Q34 173 50 173 H62"/><g class="rr-node rr-node-nonterm" data-rr-kind="nonterminal" data-rr-label="AsyncMethod"><title>nonterminal: AsyncMethod</title><rect class="rr-nonterm" x="62" y="158" width="118" height="30" rx="8"/><text class="rr-text" x="121" y="173" text-anchor="middle" dominant-baseline="central">AsyncMethod</text></g><path class="rr-track" d="M180 173 H985"/><path class="rr-track" d="M985 173 H997 Q1013 173 1013 157 V89 Q1013 73 1029 73"/><path class="rr-track" d="M18 73 Q34 73 34 89 V207 Q34 223 50 223 H62"/><g class="rr-node rr-node-nonterm" data-rr-kind="nonterminal" data-rr-label="AsyncGeneratorMethod"><title>nonterminal: AsyncGeneratorMethod</title><rect class="rr-nonterm" x="62" y="208" width="192" height="30" rx="8"/><text class="rr-text" x="158" y="223" text-anchor="middle" dominant-baseline="central">AsyncGeneratorMethod</text></g><path class="rr-track" d="M254 223 H985"/><path class="rr-track" d="M985 223 H997 Q1013 223 1013 207 V89 Q1013 73 1029 73"/><path class="rr-track" d="M18 73 Q34 73 34 89 V297 Q34 313 50 313 H62"/><g class="rr-node rr-node-term" data-rr-kind="terminal" data-rr-label="get"><title>terminal: get</title><rect class="rr-term" x="62" y="298" width="53" height="30" rx="15"/><text class="rr-text" x="88.5" y="313" text-anchor="middle" dominant-baseline="central">get</text></g><path class="rr-track" d="M115 313 H139"/><g class="rr-node rr-node-nonterm" data-rr-kind="nonterminal" data-rr-label="ClassElementName"><title>nonterminal: ClassElementName</title><rect class="rr-nonterm" x="139" y="298" width="159" height="30" rx="8"/><text class="rr-text" x="218.5" y="313" text-anchor="middle" dominant-baseline="central">ClassElementName</text></g><path class="rr-track" d="M298 313 H322"/><g class="rr-node rr-node-term" data-rr-kind="terminal" data-rr-label="("><title>terminal: (</title><rect class="rr-term" x="322" y="298" width="36" height="30" rx="15"/><text class="rr-text" x="340" y="313" text-anchor="middle" dominant-baseline="central">(</text></g><path class="rr-track" d="M358 313 H382"/><g class="rr-node rr-node-term" data-rr-kind="terminal" data-rr-label=")"><title>terminal: )</title><rect class="rr-term" x="382" y="298" width="36" height="30" rx="15"/><text class="rr-text" x="400" y="313" text-anchor="middle" dominant-baseline="central">)</text></g><path class="rr-track" d="M418 313 H442"/><g class="rr-node rr-node-term" data-rr-kind="terminal" data-rr-label="{"><title>terminal: {</title><rect class="rr-term" x="442" y="298" width="36" height="30" rx="15"/><text class="rr-text" x="460" y="313" text-anchor="middle" dominant-baseline="central">{</text></g><path class="rr-track" d="M478 313 H502"/><path class="rr-track" d="M502 313 H526"/><g class="rr-node rr-node-nonterm" data-rr-kind="nonterminal" data-rr-label="FunctionBody"><title>nonterminal: FunctionBody</title><rect class="rr-nonterm" x="526" y="298" width="126" height="30" rx="8"/><text class="rr-text" x="589" y="313" text-anchor="middle" dominant-baseline="central">FunctionBody</text></g><path class="rr-track" d="M652 313 H676"/><path class="rr-track" d="M502 313 Q514 313 514 301 V285 Q514 273 526 273 H652 Q664 273 664 285 V301 Q664 313 676 313"/><path class="rr-track" d="M676 313 H700"/><g class="rr-node rr-node-term" data-rr-kind="terminal" data-rr-label="}"><title>terminal: }</title><rect class="rr-term" x="700" y="298" width="36" height="30" rx="15"/><text class="rr-text" x="718" y="313" text-anchor="middle" dominant-baseline="central">}</text></g><path class="rr-track" d="M736 313 H985"/><path class="rr-track" d="M985 313 H997 Q1013 313 1013 297 V89 Q1013 73 1029 73"/><path class="rr-track" d="M18 73 Q34 73 34 89 V387 Q34 403 50 403 H62"/><g class="rr-node rr-node-term" data-rr-kind="terminal" data-rr-label="set"><title>terminal: set</title><rect class="rr-term" x="62" y="388" width="53" height="30" rx="15"/><text class="rr-text" x="88.5" y="403" text-anchor="middle" dominant-baseline="central">set</text></g><path class="rr-track" d="M115 403 H139"/><g class="rr-node rr-node-nonterm" data-rr-kind="nonterminal" data-rr-label="ClassElementName"><title>nonterminal: ClassElementName</title><rect class="rr-nonterm" x="139" y="388" width="159" height="30" rx="8"/><text class="rr-text" x="218.5" y="403" text-anchor="middle" dominant-baseline="central">ClassElementName</text></g><path class="rr-track" d="M298 403 H322"/><g class="rr-node rr-node-term" data-rr-kind="terminal" data-rr-label="("><title>terminal: (</title><rect class="rr-term" x="322" y="388" width="36" height="30" rx="15"/><text class="rr-text" x="340" y="403" text-anchor="middle" dominant-baseline="central">(</text></g><path class="rr-track" d="M358 403 H382"/><g class="rr-node rr-node-nonterm" data-rr-kind="nonterminal" data-rr-label="PropertySetParameterList"><title>nonterminal: PropertySetParameterList</title><rect class="rr-nonterm" x="382" y="388" width="225" height="30" rx="8"/><text class="rr-text" x="494.5" y="403" text-anchor="middle" dominant-baseline="central">PropertySetParameterList</text></g><path class="rr-track" d="M607 403 H631"/><g class="rr-node rr-node-term" data-rr-kind="terminal" data-rr-label=")"><title>terminal: )</title><rect class="rr-term" x="631" y="388" width="36" height="30" rx="15"/><text class="rr-text" x="649" y="403" text-anchor="middle" dominant-baseline="central">)</text></g><path class="rr-track" d="M667 403 H691"/><g class="rr-node rr-node-term" data-rr-kind="terminal" data-rr-label="{"><title>terminal: {</title><rect class="rr-term" x="691" y="388" width="36" height="30" rx="15"/><text class="rr-text" x="709" y="403" text-anchor="middle" dominant-baseline="central">{</text></g><path class="rr-track" d="M727 403 H751"/><path class="rr-track" d="M751 403 H775"/><g class="rr-node rr-node-nonterm" data-rr-kind="nonterminal" data-rr-label="FunctionBody"><title>nonterminal: FunctionBody</title><rect class="rr-nonterm" x="775" y="388" width="126" height="30" rx="8"/><text class="rr-text" x="838" y="403" text-anchor="middle" dominant-baseline="central">FunctionBody</text></g><path class="rr-track" d="M901 403 H925"/><path class="rr-track" d="M751 403 Q763 403 763 391 V375 Q763 363 775 363 H901 Q913 363 913 375 V391 Q913 403 925 403"/><path class="rr-track" d="M925 403 H949"/><g class="rr-node rr-node-term" data-rr-kind="terminal" data-rr-label="}"><title>terminal: }</title><rect class="rr-term" x="949" y="388" width="36" height="30" rx="15"/><text class="rr-text" x="967" y="403" text-anchor="middle" dominant-baseline="central">}</text></g><path class="rr-track" d="M985 403 H997 Q1013 403 1013 387 V89 Q1013 73 1029 73"/></svg>
