<svg xmlns="http://www.w3.org/2000/svg" width="384" height="116" viewBox="0 0 384 116" role="img" aria-label="Railroad diagram for the SettingList rule"><style>.rr-track{fill:none;stroke:#6B7280;stroke-width:2.5}.rr-term{fill:#fff;stroke:#15B879;stroke-width:2.5}.rr-nonterm{fill:#F5F6F3;stroke:#16181D;stroke-width:2.5}.rr-text{fill:#16181D;font:14px 'Fira Code',ui-monospace,SFMono-Regular,Menlo,Consolas,monospace;font-feature-settings:"liga" 1,"calt" 1;}.rr-action-text{fill:#6B7280;font:14px 'Fira Code',ui-monospace,SFMono-Regular,Menlo,Consolas,monospace;font-style:italic;font-feature-settings:"liga" 1,"calt" 1;}.rr-cap{fill:#16181D}</style><circle class="rr-cap" cx="18" cy="33" r="4"/><circle class="rr-cap" cx="366" cy="33" r="4"/><path class="rr-track" d="M18 33 H34"/><path class="rr-track" d="M350 33 H366"/><path class="rr-track" d="M34 33 H62"/><rect class="rr-nonterm" x="62" y="18" width="118" height="30" rx="8"/><text class="rr-text" x="121" y="33" text-anchor="middle" dominant-baseline="central">SettingDecl</text><path class="rr-track" d="M180 33 H322"/><path class="rr-track" d="M322 33 H350"/><path class="rr-track" d="M18 33 Q34 33 34 49 V67 Q34 83 50 83 H62"/><rect class="rr-nonterm" x="62" y="68" width="118" height="30" rx="8"/><text class="rr-text" x="121" y="83" text-anchor="middle" dominant-baseline="central">SettingList</text><path class="rr-track" d="M180 83 H204"/><rect class="rr-nonterm" x="204" y="68" width="118" height="30" rx="8"/><text class="rr-text" x="263" y="83" text-anchor="middle" dominant-baseline="central">SettingDecl</text><path class="rr-track" d="M322 83 H334 Q350 83 350 67 V49 Q350 33 366 33"/></svg>
