<svg xmlns="http://www.w3.org/2000/svg" width="482" height="96" viewBox="0 0 482 96" role="img" aria-label="Railroad diagram for the TokenDecl rule"><style>.rr-track{fill:none;stroke:#6B7280;stroke-width:2}.rr-term{fill:#fff;stroke:#15B879;stroke-width:2}.rr-nonterm{fill:#F5F6F3;stroke:#16181D;stroke-width:2}.rr-text{fill:#16181D;font:13px 'Fira Code',ui-monospace,SFMono-Regular,Menlo,Consolas,monospace;font-feature-settings:"liga" 1,"calt" 1;}.rr-action-text{fill:#6B7280;font:13px 'Fira Code',ui-monospace,SFMono-Regular,Menlo,Consolas,monospace;font-style:italic;font-feature-settings:"liga" 1,"calt" 1;}.rr-cap{fill:#16181D}</style><circle class="rr-cap" cx="14" cy="27" r="3"/><circle class="rr-cap" cx="468" cy="27" r="3"/><path class="rr-track" d="M14 27 H26"/><path class="rr-track" d="M456 27 H468"/><path class="rr-track" d="M26 27 H48"/><rect class="rr-term" x="48" y="14" width="61" height="26" rx="13"/><text class="rr-text" x="78.5" y="27" text-anchor="middle" dominant-baseline="central">IDENT</text><path class="rr-track" d="M109 27 H127"/><rect class="rr-term" x="127" y="14" width="30" height="26" rx="13"/><text class="rr-text" x="142" y="27" text-anchor="middle" dominant-baseline="central">:</text><path class="rr-track" d="M157 27 H175"/><rect class="rr-nonterm" x="175" y="14" width="116" height="26" rx="5"/><text class="rr-text" x="233" y="27" text-anchor="middle" dominant-baseline="central">TokenPattern</text><path class="rr-track" d="M291 27 H309"/><rect class="rr-term" x="309" y="14" width="30" height="26" rx="13"/><text class="rr-text" x="324" y="27" text-anchor="middle" dominant-baseline="central">;</text><path class="rr-track" d="M339 27 H434"/><path class="rr-track" d="M434 27 H456"/><path class="rr-track" d="M16 27 Q26 27 26 37 V59 Q26 69 36 69 H48"/><rect class="rr-term" x="48" y="56" width="61" height="26" rx="13"/><text class="rr-text" x="78.5" y="69" text-anchor="middle" dominant-baseline="central">IDENT</text><path class="rr-track" d="M109 69 H127"/><rect class="rr-term" x="127" y="56" width="30" height="26" rx="13"/><text class="rr-text" x="142" y="69" text-anchor="middle" dominant-baseline="central">:</text><path class="rr-track" d="M157 69 H175"/><rect class="rr-nonterm" x="175" y="56" width="116" height="26" rx="5"/><text class="rr-text" x="233" y="69" text-anchor="middle" dominant-baseline="central">TokenPattern</text><path class="rr-track" d="M291 69 H309"/><rect class="rr-nonterm" x="309" y="56" width="77" height="26" rx="5"/><text class="rr-text" x="347.5" y="69" text-anchor="middle" dominant-baseline="central">ModList</text><path class="rr-track" d="M386 69 H404"/><rect class="rr-term" x="404" y="56" width="30" height="26" rx="13"/><text class="rr-text" x="419" y="69" text-anchor="middle" dominant-baseline="central">;</text><path class="rr-track" d="M434 69 H446 Q456 69 456 59 V37 Q456 27 466 27"/></svg>
