<svg xmlns="http://www.w3.org/2000/svg" width="873" height="816" viewBox="0 0 873 816" role="img" aria-label="Railroad diagram for the funcbody rule"><style>.rr-track{fill:none;stroke:#6B7280;stroke-width:2.5}.rr-term{fill:#fff;stroke:#15B879;stroke-width:2.5}.rr-nonterm{fill:#F5F6F3;stroke:#16181D;stroke-width:2.5}.rr-text{fill:#16181D;font:14px 'Fira Code',ui-monospace,SFMono-Regular,Menlo,Consolas,monospace;font-feature-settings:"liga" 1,"calt" 1;}.rr-action-text{fill:#6B7280;font:14px 'Fira Code',ui-monospace,SFMono-Regular,Menlo,Consolas,monospace;font-style:italic;font-feature-settings:"liga" 1,"calt" 1;}.rr-cap{fill:#16181D}</style><circle class="rr-cap" cx="18" cy="33" r="4"/><circle class="rr-cap" cx="855" cy="33" r="4"/><path class="rr-track" d="M18 33 H34"/><path class="rr-track" d="M839 33 H855"/><path class="rr-track" d="M34 33 H62"/><g class="rr-node rr-node-nonterm" data-rr-kind="nonterminal" data-rr-label="GenericTypeParams"><title>nonterminal: GenericTypeParams</title><rect class="rr-nonterm" x="62" y="18" width="167" height="30" rx="8"/><text class="rr-text" x="145.5" y="33" text-anchor="middle" dominant-baseline="central">GenericTypeParams</text></g><path class="rr-track" d="M229 33 H253"/><g class="rr-node rr-node-term" data-rr-kind="terminal" data-rr-label="("><title>terminal: (</title><rect class="rr-term" x="253" y="18" width="36" height="30" rx="15"/><text class="rr-text" x="271" y="33" text-anchor="middle" dominant-baseline="central">(</text></g><path class="rr-track" d="M289 33 H313"/><g class="rr-node rr-node-nonterm" data-rr-kind="nonterminal" data-rr-label="parlist"><title>nonterminal: parlist</title><rect class="rr-nonterm" x="313" y="18" width="85" height="30" rx="8"/><text class="rr-text" x="355.5" y="33" text-anchor="middle" dominant-baseline="central">parlist</text></g><path class="rr-track" d="M398 33 H422"/><g class="rr-node rr-node-term" data-rr-kind="terminal" data-rr-label=")"><title>terminal: )</title><rect class="rr-term" x="422" y="18" width="36" height="30" rx="15"/><text class="rr-text" x="440" y="33" text-anchor="middle" dominant-baseline="central">)</text></g><path class="rr-track" d="M458 33 H482"/><g class="rr-node rr-node-nonterm" data-rr-kind="nonterminal" data-rr-label="ReturnAnnotation"><title>nonterminal: ReturnAnnotation</title><rect class="rr-nonterm" x="482" y="18" width="159" height="30" rx="8"/><text class="rr-text" x="561.5" y="33" text-anchor="middle" dominant-baseline="central">ReturnAnnotation</text></g><path class="rr-track" d="M641 33 H665"/><g class="rr-node rr-node-nonterm" data-rr-kind="nonterminal" data-rr-label="block"><title>nonterminal: block</title><rect class="rr-nonterm" x="665" y="18" width="69" height="30" rx="8"/><text class="rr-text" x="699.5" y="33" text-anchor="middle" dominant-baseline="central">block</text></g><path class="rr-track" d="M734 33 H758"/><g class="rr-node rr-node-term" data-rr-kind="terminal" data-rr-label="end"><title>terminal: end</title><rect class="rr-term" x="758" y="18" width="53" height="30" rx="15"/><text class="rr-text" x="784.5" y="33" text-anchor="middle" dominant-baseline="central">end</text></g><path class="rr-track" d="M811 33 H839"/><path class="rr-track" d="M18 33 Q34 33 34 49 V67 Q34 83 50 83 H62"/><g class="rr-node rr-node-term" data-rr-kind="terminal" data-rr-label="("><title>terminal: (</title><rect class="rr-term" x="62" y="68" width="36" height="30" rx="15"/><text class="rr-text" x="80" y="83" text-anchor="middle" dominant-baseline="central">(</text></g><path class="rr-track" d="M98 83 H122"/><g class="rr-node rr-node-nonterm" data-rr-kind="nonterminal" data-rr-label="parlist"><title>nonterminal: parlist</title><rect class="rr-nonterm" x="122" y="68" width="85" height="30" rx="8"/><text class="rr-text" x="164.5" y="83" text-anchor="middle" dominant-baseline="central">parlist</text></g><path class="rr-track" d="M207 83 H231"/><g class="rr-node rr-node-term" data-rr-kind="terminal" data-rr-label=")"><title>terminal: )</title><rect class="rr-term" x="231" y="68" width="36" height="30" rx="15"/><text class="rr-text" x="249" y="83" text-anchor="middle" dominant-baseline="central">)</text></g><path class="rr-track" d="M267 83 H291"/><g class="rr-node rr-node-nonterm" data-rr-kind="nonterminal" data-rr-label="ReturnAnnotation"><title>nonterminal: ReturnAnnotation</title><rect class="rr-nonterm" x="291" y="68" width="159" height="30" rx="8"/><text class="rr-text" x="370.5" y="83" text-anchor="middle" dominant-baseline="central">ReturnAnnotation</text></g><path class="rr-track" d="M450 83 H474"/><g class="rr-node rr-node-nonterm" data-rr-kind="nonterminal" data-rr-label="block"><title>nonterminal: block</title><rect class="rr-nonterm" x="474" y="68" width="69" height="30" rx="8"/><text class="rr-text" x="508.5" y="83" text-anchor="middle" dominant-baseline="central">block</text></g><path class="rr-track" d="M543 83 H567"/><g class="rr-node rr-node-term" data-rr-kind="terminal" data-rr-label="end"><title>terminal: end</title><rect class="rr-term" x="567" y="68" width="53" height="30" rx="15"/><text class="rr-text" x="593.5" y="83" text-anchor="middle" dominant-baseline="central">end</text></g><path class="rr-track" d="M620 83 H811"/><path class="rr-track" d="M811 83 H823 Q839 83 839 67 V49 Q839 33 855 33"/><path class="rr-track" d="M18 33 Q34 33 34 49 V117 Q34 133 50 133 H62"/><g class="rr-node rr-node-nonterm" data-rr-kind="nonterminal" data-rr-label="GenericTypeParams"><title>nonterminal: GenericTypeParams</title><rect class="rr-nonterm" x="62" y="118" width="167" height="30" rx="8"/><text class="rr-text" x="145.5" y="133" text-anchor="middle" dominant-baseline="central">GenericTypeParams</text></g><path class="rr-track" d="M229 133 H253"/><g class="rr-node rr-node-term" data-rr-kind="terminal" data-rr-label="("><title>terminal: (</title><rect class="rr-term" x="253" y="118" width="36" height="30" rx="15"/><text class="rr-text" x="271" y="133" text-anchor="middle" dominant-baseline="central">(</text></g><path class="rr-track" d="M289 133 H313"/><g class="rr-node rr-node-term" data-rr-kind="terminal" data-rr-label=")"><title>terminal: )</title><rect class="rr-term" x="313" y="118" width="36" height="30" rx="15"/><text class="rr-text" x="331" y="133" text-anchor="middle" dominant-baseline="central">)</text></g><path class="rr-track" d="M349 133 H373"/><g class="rr-node rr-node-nonterm" data-rr-kind="nonterminal" data-rr-label="ReturnAnnotation"><title>nonterminal: ReturnAnnotation</title><rect class="rr-nonterm" x="373" y="118" width="159" height="30" rx="8"/><text class="rr-text" x="452.5" y="133" text-anchor="middle" dominant-baseline="central">ReturnAnnotation</text></g><path class="rr-track" d="M532 133 H556"/><g class="rr-node rr-node-nonterm" data-rr-kind="nonterminal" data-rr-label="block"><title>nonterminal: block</title><rect class="rr-nonterm" x="556" y="118" width="69" height="30" rx="8"/><text class="rr-text" x="590.5" y="133" text-anchor="middle" dominant-baseline="central">block</text></g><path class="rr-track" d="M625 133 H649"/><g class="rr-node rr-node-term" data-rr-kind="terminal" data-rr-label="end"><title>terminal: end</title><rect class="rr-term" x="649" y="118" width="53" height="30" rx="15"/><text class="rr-text" x="675.5" y="133" text-anchor="middle" dominant-baseline="central">end</text></g><path class="rr-track" d="M702 133 H811"/><path class="rr-track" d="M811 133 H823 Q839 133 839 117 V49 Q839 33 855 33"/><path class="rr-track" d="M18 33 Q34 33 34 49 V167 Q34 183 50 183 H62"/><g class="rr-node rr-node-term" data-rr-kind="terminal" data-rr-label="("><title>terminal: (</title><rect class="rr-term" x="62" y="168" width="36" height="30" rx="15"/><text class="rr-text" x="80" y="183" text-anchor="middle" dominant-baseline="central">(</text></g><path class="rr-track" d="M98 183 H122"/><g class="rr-node rr-node-term" data-rr-kind="terminal" data-rr-label=")"><title>terminal: )</title><rect class="rr-term" x="122" y="168" width="36" height="30" rx="15"/><text class="rr-text" x="140" y="183" text-anchor="middle" dominant-baseline="central">)</text></g><path class="rr-track" d="M158 183 H182"/><g class="rr-node rr-node-nonterm" data-rr-kind="nonterminal" data-rr-label="ReturnAnnotation"><title>nonterminal: ReturnAnnotation</title><rect class="rr-nonterm" x="182" y="168" width="159" height="30" rx="8"/><text class="rr-text" x="261.5" y="183" text-anchor="middle" dominant-baseline="central">ReturnAnnotation</text></g><path class="rr-track" d="M341 183 H365"/><g class="rr-node rr-node-nonterm" data-rr-kind="nonterminal" data-rr-label="block"><title>nonterminal: block</title><rect class="rr-nonterm" x="365" y="168" width="69" height="30" rx="8"/><text class="rr-text" x="399.5" y="183" text-anchor="middle" dominant-baseline="central">block</text></g><path class="rr-track" d="M434 183 H458"/><g class="rr-node rr-node-term" data-rr-kind="terminal" data-rr-label="end"><title>terminal: end</title><rect class="rr-term" x="458" y="168" width="53" height="30" rx="15"/><text class="rr-text" x="484.5" y="183" text-anchor="middle" dominant-baseline="central">end</text></g><path class="rr-track" d="M511 183 H811"/><path class="rr-track" d="M811 183 H823 Q839 183 839 167 V49 Q839 33 855 33"/><path class="rr-track" d="M18 33 Q34 33 34 49 V217 Q34 233 50 233 H62"/><g class="rr-node rr-node-nonterm" data-rr-kind="nonterminal" data-rr-label="GenericTypeParams"><title>nonterminal: GenericTypeParams</title><rect class="rr-nonterm" x="62" y="218" width="167" height="30" rx="8"/><text class="rr-text" x="145.5" y="233" text-anchor="middle" dominant-baseline="central">GenericTypeParams</text></g><path class="rr-track" d="M229 233 H253"/><g class="rr-node rr-node-term" data-rr-kind="terminal" data-rr-label="("><title>terminal: (</title><rect class="rr-term" x="253" y="218" width="36" height="30" rx="15"/><text class="rr-text" x="271" y="233" text-anchor="middle" dominant-baseline="central">(</text></g><path class="rr-track" d="M289 233 H313"/><g class="rr-node rr-node-nonterm" data-rr-kind="nonterminal" data-rr-label="parlist"><title>nonterminal: parlist</title><rect class="rr-nonterm" x="313" y="218" width="85" height="30" rx="8"/><text class="rr-text" x="355.5" y="233" text-anchor="middle" dominant-baseline="central">parlist</text></g><path class="rr-track" d="M398 233 H422"/><g class="rr-node rr-node-term" data-rr-kind="terminal" data-rr-label=")"><title>terminal: )</title><rect class="rr-term" x="422" y="218" width="36" height="30" rx="15"/><text class="rr-text" x="440" y="233" text-anchor="middle" dominant-baseline="central">)</text></g><path class="rr-track" d="M458 233 H482"/><g class="rr-node rr-node-nonterm" data-rr-kind="nonterminal" data-rr-label="block"><title>nonterminal: block</title><rect class="rr-nonterm" x="482" y="218" width="69" height="30" rx="8"/><text class="rr-text" x="516.5" y="233" text-anchor="middle" dominant-baseline="central">block</text></g><path class="rr-track" d="M551 233 H575"/><g class="rr-node rr-node-term" data-rr-kind="terminal" data-rr-label="end"><title>terminal: end</title><rect class="rr-term" x="575" y="218" width="53" height="30" rx="15"/><text class="rr-text" x="601.5" y="233" text-anchor="middle" dominant-baseline="central">end</text></g><path class="rr-track" d="M628 233 H811"/><path class="rr-track" d="M811 233 H823 Q839 233 839 217 V49 Q839 33 855 33"/><path class="rr-track" d="M18 33 Q34 33 34 49 V267 Q34 283 50 283 H62"/><g class="rr-node rr-node-term" data-rr-kind="terminal" data-rr-label="("><title>terminal: (</title><rect class="rr-term" x="62" y="268" width="36" height="30" rx="15"/><text class="rr-text" x="80" y="283" text-anchor="middle" dominant-baseline="central">(</text></g><path class="rr-track" d="M98 283 H122"/><g class="rr-node rr-node-nonterm" data-rr-kind="nonterminal" data-rr-label="parlist"><title>nonterminal: parlist</title><rect class="rr-nonterm" x="122" y="268" width="85" height="30" rx="8"/><text class="rr-text" x="164.5" y="283" text-anchor="middle" dominant-baseline="central">parlist</text></g><path class="rr-track" d="M207 283 H231"/><g class="rr-node rr-node-term" data-rr-kind="terminal" data-rr-label=")"><title>terminal: )</title><rect class="rr-term" x="231" y="268" width="36" height="30" rx="15"/><text class="rr-text" x="249" y="283" text-anchor="middle" dominant-baseline="central">)</text></g><path class="rr-track" d="M267 283 H291"/><g class="rr-node rr-node-nonterm" data-rr-kind="nonterminal" data-rr-label="block"><title>nonterminal: block</title><rect class="rr-nonterm" x="291" y="268" width="69" height="30" rx="8"/><text class="rr-text" x="325.5" y="283" text-anchor="middle" dominant-baseline="central">block</text></g><path class="rr-track" d="M360 283 H384"/><g class="rr-node rr-node-term" data-rr-kind="terminal" data-rr-label="end"><title>terminal: end</title><rect class="rr-term" x="384" y="268" width="53" height="30" rx="15"/><text class="rr-text" x="410.5" y="283" text-anchor="middle" dominant-baseline="central">end</text></g><path class="rr-track" d="M437 283 H811"/><path class="rr-track" d="M811 283 H823 Q839 283 839 267 V49 Q839 33 855 33"/><path class="rr-track" d="M18 33 Q34 33 34 49 V317 Q34 333 50 333 H62"/><g class="rr-node rr-node-nonterm" data-rr-kind="nonterminal" data-rr-label="GenericTypeParams"><title>nonterminal: GenericTypeParams</title><rect class="rr-nonterm" x="62" y="318" width="167" height="30" rx="8"/><text class="rr-text" x="145.5" y="333" text-anchor="middle" dominant-baseline="central">GenericTypeParams</text></g><path class="rr-track" d="M229 333 H253"/><g class="rr-node rr-node-term" data-rr-kind="terminal" data-rr-label="("><title>terminal: (</title><rect class="rr-term" x="253" y="318" width="36" height="30" rx="15"/><text class="rr-text" x="271" y="333" text-anchor="middle" dominant-baseline="central">(</text></g><path class="rr-track" d="M289 333 H313"/><g class="rr-node rr-node-term" data-rr-kind="terminal" data-rr-label=")"><title>terminal: )</title><rect class="rr-term" x="313" y="318" width="36" height="30" rx="15"/><text class="rr-text" x="331" y="333" text-anchor="middle" dominant-baseline="central">)</text></g><path class="rr-track" d="M349 333 H373"/><g class="rr-node rr-node-nonterm" data-rr-kind="nonterminal" data-rr-label="block"><title>nonterminal: block</title><rect class="rr-nonterm" x="373" y="318" width="69" height="30" rx="8"/><text class="rr-text" x="407.5" y="333" text-anchor="middle" dominant-baseline="central">block</text></g><path class="rr-track" d="M442 333 H466"/><g class="rr-node rr-node-term" data-rr-kind="terminal" data-rr-label="end"><title>terminal: end</title><rect class="rr-term" x="466" y="318" width="53" height="30" rx="15"/><text class="rr-text" x="492.5" y="333" text-anchor="middle" dominant-baseline="central">end</text></g><path class="rr-track" d="M519 333 H811"/><path class="rr-track" d="M811 333 H823 Q839 333 839 317 V49 Q839 33 855 33"/><path class="rr-track" d="M18 33 Q34 33 34 49 V367 Q34 383 50 383 H62"/><g class="rr-node rr-node-term" data-rr-kind="terminal" data-rr-label="("><title>terminal: (</title><rect class="rr-term" x="62" y="368" width="36" height="30" rx="15"/><text class="rr-text" x="80" y="383" text-anchor="middle" dominant-baseline="central">(</text></g><path class="rr-track" d="M98 383 H122"/><g class="rr-node rr-node-term" data-rr-kind="terminal" data-rr-label=")"><title>terminal: )</title><rect class="rr-term" x="122" y="368" width="36" height="30" rx="15"/><text class="rr-text" x="140" y="383" text-anchor="middle" dominant-baseline="central">)</text></g><path class="rr-track" d="M158 383 H182"/><g class="rr-node rr-node-nonterm" data-rr-kind="nonterminal" data-rr-label="block"><title>nonterminal: block</title><rect class="rr-nonterm" x="182" y="368" width="69" height="30" rx="8"/><text class="rr-text" x="216.5" y="383" text-anchor="middle" dominant-baseline="central">block</text></g><path class="rr-track" d="M251 383 H275"/><g class="rr-node rr-node-term" data-rr-kind="terminal" data-rr-label="end"><title>terminal: end</title><rect class="rr-term" x="275" y="368" width="53" height="30" rx="15"/><text class="rr-text" x="301.5" y="383" text-anchor="middle" dominant-baseline="central">end</text></g><path class="rr-track" d="M328 383 H811"/><path class="rr-track" d="M811 383 H823 Q839 383 839 367 V49 Q839 33 855 33"/><path class="rr-track" d="M18 33 Q34 33 34 49 V417 Q34 433 50 433 H62"/><g class="rr-node rr-node-nonterm" data-rr-kind="nonterminal" data-rr-label="GenericTypeParams"><title>nonterminal: GenericTypeParams</title><rect class="rr-nonterm" x="62" y="418" width="167" height="30" rx="8"/><text class="rr-text" x="145.5" y="433" text-anchor="middle" dominant-baseline="central">GenericTypeParams</text></g><path class="rr-track" d="M229 433 H253"/><g class="rr-node rr-node-term" data-rr-kind="terminal" data-rr-label="("><title>terminal: (</title><rect class="rr-term" x="253" y="418" width="36" height="30" rx="15"/><text class="rr-text" x="271" y="433" text-anchor="middle" dominant-baseline="central">(</text></g><path class="rr-track" d="M289 433 H313"/><g class="rr-node rr-node-nonterm" data-rr-kind="nonterminal" data-rr-label="parlist"><title>nonterminal: parlist</title><rect class="rr-nonterm" x="313" y="418" width="85" height="30" rx="8"/><text class="rr-text" x="355.5" y="433" text-anchor="middle" dominant-baseline="central">parlist</text></g><path class="rr-track" d="M398 433 H422"/><g class="rr-node rr-node-term" data-rr-kind="terminal" data-rr-label=")"><title>terminal: )</title><rect class="rr-term" x="422" y="418" width="36" height="30" rx="15"/><text class="rr-text" x="440" y="433" text-anchor="middle" dominant-baseline="central">)</text></g><path class="rr-track" d="M458 433 H482"/><g class="rr-node rr-node-nonterm" data-rr-kind="nonterminal" data-rr-label="ReturnAnnotation"><title>nonterminal: ReturnAnnotation</title><rect class="rr-nonterm" x="482" y="418" width="159" height="30" rx="8"/><text class="rr-text" x="561.5" y="433" text-anchor="middle" dominant-baseline="central">ReturnAnnotation</text></g><path class="rr-track" d="M641 433 H665"/><g class="rr-node rr-node-term" data-rr-kind="terminal" data-rr-label="end"><title>terminal: end</title><rect class="rr-term" x="665" y="418" width="53" height="30" rx="15"/><text class="rr-text" x="691.5" y="433" text-anchor="middle" dominant-baseline="central">end</text></g><path class="rr-track" d="M718 433 H811"/><path class="rr-track" d="M811 433 H823 Q839 433 839 417 V49 Q839 33 855 33"/><path class="rr-track" d="M18 33 Q34 33 34 49 V467 Q34 483 50 483 H62"/><g class="rr-node rr-node-term" data-rr-kind="terminal" data-rr-label="("><title>terminal: (</title><rect class="rr-term" x="62" y="468" width="36" height="30" rx="15"/><text class="rr-text" x="80" y="483" text-anchor="middle" dominant-baseline="central">(</text></g><path class="rr-track" d="M98 483 H122"/><g class="rr-node rr-node-nonterm" data-rr-kind="nonterminal" data-rr-label="parlist"><title>nonterminal: parlist</title><rect class="rr-nonterm" x="122" y="468" width="85" height="30" rx="8"/><text class="rr-text" x="164.5" y="483" text-anchor="middle" dominant-baseline="central">parlist</text></g><path class="rr-track" d="M207 483 H231"/><g class="rr-node rr-node-term" data-rr-kind="terminal" data-rr-label=")"><title>terminal: )</title><rect class="rr-term" x="231" y="468" width="36" height="30" rx="15"/><text class="rr-text" x="249" y="483" text-anchor="middle" dominant-baseline="central">)</text></g><path class="rr-track" d="M267 483 H291"/><g class="rr-node rr-node-nonterm" data-rr-kind="nonterminal" data-rr-label="ReturnAnnotation"><title>nonterminal: ReturnAnnotation</title><rect class="rr-nonterm" x="291" y="468" width="159" height="30" rx="8"/><text class="rr-text" x="370.5" y="483" text-anchor="middle" dominant-baseline="central">ReturnAnnotation</text></g><path class="rr-track" d="M450 483 H474"/><g class="rr-node rr-node-term" data-rr-kind="terminal" data-rr-label="end"><title>terminal: end</title><rect class="rr-term" x="474" y="468" width="53" height="30" rx="15"/><text class="rr-text" x="500.5" y="483" text-anchor="middle" dominant-baseline="central">end</text></g><path class="rr-track" d="M527 483 H811"/><path class="rr-track" d="M811 483 H823 Q839 483 839 467 V49 Q839 33 855 33"/><path class="rr-track" d="M18 33 Q34 33 34 49 V517 Q34 533 50 533 H62"/><g class="rr-node rr-node-nonterm" data-rr-kind="nonterminal" data-rr-label="GenericTypeParams"><title>nonterminal: GenericTypeParams</title><rect class="rr-nonterm" x="62" y="518" width="167" height="30" rx="8"/><text class="rr-text" x="145.5" y="533" text-anchor="middle" dominant-baseline="central">GenericTypeParams</text></g><path class="rr-track" d="M229 533 H253"/><g class="rr-node rr-node-term" data-rr-kind="terminal" data-rr-label="("><title>terminal: (</title><rect class="rr-term" x="253" y="518" width="36" height="30" rx="15"/><text class="rr-text" x="271" y="533" text-anchor="middle" dominant-baseline="central">(</text></g><path class="rr-track" d="M289 533 H313"/><g class="rr-node rr-node-term" data-rr-kind="terminal" data-rr-label=")"><title>terminal: )</title><rect class="rr-term" x="313" y="518" width="36" height="30" rx="15"/><text class="rr-text" x="331" y="533" text-anchor="middle" dominant-baseline="central">)</text></g><path class="rr-track" d="M349 533 H373"/><g class="rr-node rr-node-nonterm" data-rr-kind="nonterminal" data-rr-label="ReturnAnnotation"><title>nonterminal: ReturnAnnotation</title><rect class="rr-nonterm" x="373" y="518" width="159" height="30" rx="8"/><text class="rr-text" x="452.5" y="533" text-anchor="middle" dominant-baseline="central">ReturnAnnotation</text></g><path class="rr-track" d="M532 533 H556"/><g class="rr-node rr-node-term" data-rr-kind="terminal" data-rr-label="end"><title>terminal: end</title><rect class="rr-term" x="556" y="518" width="53" height="30" rx="15"/><text class="rr-text" x="582.5" y="533" text-anchor="middle" dominant-baseline="central">end</text></g><path class="rr-track" d="M609 533 H811"/><path class="rr-track" d="M811 533 H823 Q839 533 839 517 V49 Q839 33 855 33"/><path class="rr-track" d="M18 33 Q34 33 34 49 V567 Q34 583 50 583 H62"/><g class="rr-node rr-node-term" data-rr-kind="terminal" data-rr-label="("><title>terminal: (</title><rect class="rr-term" x="62" y="568" width="36" height="30" rx="15"/><text class="rr-text" x="80" y="583" text-anchor="middle" dominant-baseline="central">(</text></g><path class="rr-track" d="M98 583 H122"/><g class="rr-node rr-node-term" data-rr-kind="terminal" data-rr-label=")"><title>terminal: )</title><rect class="rr-term" x="122" y="568" width="36" height="30" rx="15"/><text class="rr-text" x="140" y="583" text-anchor="middle" dominant-baseline="central">)</text></g><path class="rr-track" d="M158 583 H182"/><g class="rr-node rr-node-nonterm" data-rr-kind="nonterminal" data-rr-label="ReturnAnnotation"><title>nonterminal: ReturnAnnotation</title><rect class="rr-nonterm" x="182" y="568" width="159" height="30" rx="8"/><text class="rr-text" x="261.5" y="583" text-anchor="middle" dominant-baseline="central">ReturnAnnotation</text></g><path class="rr-track" d="M341 583 H365"/><g class="rr-node rr-node-term" data-rr-kind="terminal" data-rr-label="end"><title>terminal: end</title><rect class="rr-term" x="365" y="568" width="53" height="30" rx="15"/><text class="rr-text" x="391.5" y="583" text-anchor="middle" dominant-baseline="central">end</text></g><path class="rr-track" d="M418 583 H811"/><path class="rr-track" d="M811 583 H823 Q839 583 839 567 V49 Q839 33 855 33"/><path class="rr-track" d="M18 33 Q34 33 34 49 V617 Q34 633 50 633 H62"/><g class="rr-node rr-node-nonterm" data-rr-kind="nonterminal" data-rr-label="GenericTypeParams"><title>nonterminal: GenericTypeParams</title><rect class="rr-nonterm" x="62" y="618" width="167" height="30" rx="8"/><text class="rr-text" x="145.5" y="633" text-anchor="middle" dominant-baseline="central">GenericTypeParams</text></g><path class="rr-track" d="M229 633 H253"/><g class="rr-node rr-node-term" data-rr-kind="terminal" data-rr-label="("><title>terminal: (</title><rect class="rr-term" x="253" y="618" width="36" height="30" rx="15"/><text class="rr-text" x="271" y="633" text-anchor="middle" dominant-baseline="central">(</text></g><path class="rr-track" d="M289 633 H313"/><g class="rr-node rr-node-nonterm" data-rr-kind="nonterminal" data-rr-label="parlist"><title>nonterminal: parlist</title><rect class="rr-nonterm" x="313" y="618" width="85" height="30" rx="8"/><text class="rr-text" x="355.5" y="633" text-anchor="middle" dominant-baseline="central">parlist</text></g><path class="rr-track" d="M398 633 H422"/><g class="rr-node rr-node-term" data-rr-kind="terminal" data-rr-label=")"><title>terminal: )</title><rect class="rr-term" x="422" y="618" width="36" height="30" rx="15"/><text class="rr-text" x="440" y="633" text-anchor="middle" dominant-baseline="central">)</text></g><path class="rr-track" d="M458 633 H482"/><g class="rr-node rr-node-term" data-rr-kind="terminal" data-rr-label="end"><title>terminal: end</title><rect class="rr-term" x="482" y="618" width="53" height="30" rx="15"/><text class="rr-text" x="508.5" y="633" text-anchor="middle" dominant-baseline="central">end</text></g><path class="rr-track" d="M535 633 H811"/><path class="rr-track" d="M811 633 H823 Q839 633 839 617 V49 Q839 33 855 33"/><path class="rr-track" d="M18 33 Q34 33 34 49 V667 Q34 683 50 683 H62"/><g class="rr-node rr-node-term" data-rr-kind="terminal" data-rr-label="("><title>terminal: (</title><rect class="rr-term" x="62" y="668" width="36" height="30" rx="15"/><text class="rr-text" x="80" y="683" text-anchor="middle" dominant-baseline="central">(</text></g><path class="rr-track" d="M98 683 H122"/><g class="rr-node rr-node-nonterm" data-rr-kind="nonterminal" data-rr-label="parlist"><title>nonterminal: parlist</title><rect class="rr-nonterm" x="122" y="668" width="85" height="30" rx="8"/><text class="rr-text" x="164.5" y="683" text-anchor="middle" dominant-baseline="central">parlist</text></g><path class="rr-track" d="M207 683 H231"/><g class="rr-node rr-node-term" data-rr-kind="terminal" data-rr-label=")"><title>terminal: )</title><rect class="rr-term" x="231" y="668" width="36" height="30" rx="15"/><text class="rr-text" x="249" y="683" text-anchor="middle" dominant-baseline="central">)</text></g><path class="rr-track" d="M267 683 H291"/><g class="rr-node rr-node-term" data-rr-kind="terminal" data-rr-label="end"><title>terminal: end</title><rect class="rr-term" x="291" y="668" width="53" height="30" rx="15"/><text class="rr-text" x="317.5" y="683" text-anchor="middle" dominant-baseline="central">end</text></g><path class="rr-track" d="M344 683 H811"/><path class="rr-track" d="M811 683 H823 Q839 683 839 667 V49 Q839 33 855 33"/><path class="rr-track" d="M18 33 Q34 33 34 49 V717 Q34 733 50 733 H62"/><g class="rr-node rr-node-nonterm" data-rr-kind="nonterminal" data-rr-label="GenericTypeParams"><title>nonterminal: GenericTypeParams</title><rect class="rr-nonterm" x="62" y="718" width="167" height="30" rx="8"/><text class="rr-text" x="145.5" y="733" text-anchor="middle" dominant-baseline="central">GenericTypeParams</text></g><path class="rr-track" d="M229 733 H253"/><g class="rr-node rr-node-term" data-rr-kind="terminal" data-rr-label="("><title>terminal: (</title><rect class="rr-term" x="253" y="718" width="36" height="30" rx="15"/><text class="rr-text" x="271" y="733" text-anchor="middle" dominant-baseline="central">(</text></g><path class="rr-track" d="M289 733 H313"/><g class="rr-node rr-node-term" data-rr-kind="terminal" data-rr-label=")"><title>terminal: )</title><rect class="rr-term" x="313" y="718" width="36" height="30" rx="15"/><text class="rr-text" x="331" y="733" text-anchor="middle" dominant-baseline="central">)</text></g><path class="rr-track" d="M349 733 H373"/><g class="rr-node rr-node-term" data-rr-kind="terminal" data-rr-label="end"><title>terminal: end</title><rect class="rr-term" x="373" y="718" width="53" height="30" rx="15"/><text class="rr-text" x="399.5" y="733" text-anchor="middle" dominant-baseline="central">end</text></g><path class="rr-track" d="M426 733 H811"/><path class="rr-track" d="M811 733 H823 Q839 733 839 717 V49 Q839 33 855 33"/><path class="rr-track" d="M18 33 Q34 33 34 49 V767 Q34 783 50 783 H62"/><g class="rr-node rr-node-term" data-rr-kind="terminal" data-rr-label="("><title>terminal: (</title><rect class="rr-term" x="62" y="768" width="36" height="30" rx="15"/><text class="rr-text" x="80" y="783" text-anchor="middle" dominant-baseline="central">(</text></g><path class="rr-track" d="M98 783 H122"/><g class="rr-node rr-node-term" data-rr-kind="terminal" data-rr-label=")"><title>terminal: )</title><rect class="rr-term" x="122" y="768" width="36" height="30" rx="15"/><text class="rr-text" x="140" y="783" text-anchor="middle" dominant-baseline="central">)</text></g><path class="rr-track" d="M158 783 H182"/><g class="rr-node rr-node-term" data-rr-kind="terminal" data-rr-label="end"><title>terminal: end</title><rect class="rr-term" x="182" y="768" width="53" height="30" rx="15"/><text class="rr-text" x="208.5" y="783" text-anchor="middle" dominant-baseline="central">end</text></g><path class="rr-track" d="M235 783 H811"/><path class="rr-track" d="M811 783 H823 Q839 783 839 767 V49 Q839 33 855 33"/></svg>
