<svg xmlns="http://www.w3.org/2000/svg" width="602" height="148" viewBox="0 0 602 148" role="img" aria-label="Railroad diagram for the ParenTypeOrFunctionType rule"><style>.rr-track{fill:none;stroke:#6B7280;stroke-width:2.5}.rr-term{fill:#fff;stroke:#15B879;stroke-width:2.5}.rr-nonterm{fill:#F5F6F3;stroke:#16181D;stroke-width:2.5}.rr-text{fill:#16181D;font:14px 'Fira Code',ui-monospace,SFMono-Regular,Menlo,Consolas,monospace;font-feature-settings:"liga" 1,"calt" 1;}.rr-action-text{fill:#6B7280;font:14px 'Fira Code',ui-monospace,SFMono-Regular,Menlo,Consolas,monospace;font-style:italic;font-feature-settings:"liga" 1,"calt" 1;}.rr-cap{fill:#16181D}.rr-arrow{fill:#6B7280}</style><circle class="rr-cap" cx="18" cy="65" r="4"/><circle class="rr-cap" cx="584" cy="65" r="4"/><path class="rr-track" d="M18 65 H34"/><path class="rr-track" d="M568 65 H584"/><path class="rr-track" d="M34 65 H62"/><g class="rr-node rr-node-term" data-rr-kind="terminal" data-rr-label="("><title>terminal: (</title><rect class="rr-term" x="62" y="50" width="36" height="30" rx="15"/><text class="rr-text" x="80" y="65" text-anchor="middle" dominant-baseline="central">(</text></g><path class="rr-track" d="M98 65 H122"/><g class="rr-node rr-node-nonterm" data-rr-kind="nonterminal" data-rr-label="BoundTypeList"><title>nonterminal: BoundTypeList</title><rect class="rr-nonterm" x="122" y="50" width="135" height="30" rx="8"/><text class="rr-text" x="189.5" y="65" text-anchor="middle" dominant-baseline="central">BoundTypeList</text></g><path class="rr-track" d="M257 65 H281"/><g class="rr-node rr-node-term" data-rr-kind="terminal" data-rr-label=")"><title>terminal: )</title><rect class="rr-term" x="281" y="50" width="36" height="30" rx="15"/><text class="rr-text" x="299" y="65" text-anchor="middle" dominant-baseline="central">)</text></g><path class="rr-track" d="M317 65 H341"/><path class="rr-track" d="M341 65 H373"/><g class="rr-node rr-node-nonterm" data-rr-kind="nonterminal" data-rr-label="FunctionArrow"><title>nonterminal: FunctionArrow</title><rect class="rr-nonterm" x="373" y="50" width="135" height="30" rx="8"/><text class="rr-text" x="440.5" y="65" text-anchor="middle" dominant-baseline="central">FunctionArrow</text></g><path class="rr-track" d="M508 65 H540"/><path class="rr-track" d="M341 65 Q353 65 353 53 V45 Q353 33 365 33 H516 Q528 33 528 45 V53 Q528 65 540 65"/><path class="rr-track" d="M540 65 H568"/><path class="rr-track" d="M18 65 Q34 65 34 81 V99 Q34 115 50 115 H62"/><g class="rr-node rr-node-term" data-rr-kind="terminal" data-rr-label="("><title>terminal: (</title><rect class="rr-term" x="62" y="100" width="36" height="30" rx="15"/><text class="rr-text" x="80" y="115" text-anchor="middle" dominant-baseline="central">(</text></g><path class="rr-track" d="M98 115 H122"/><g class="rr-node rr-node-term" data-rr-kind="terminal" data-rr-label=")"><title>terminal: )</title><rect class="rr-term" x="122" y="100" width="36" height="30" rx="15"/><text class="rr-text" x="140" y="115" text-anchor="middle" dominant-baseline="central">)</text></g><path class="rr-track" d="M158 115 H182"/><g class="rr-node rr-node-nonterm" data-rr-kind="nonterminal" data-rr-label="FunctionArrow"><title>nonterminal: FunctionArrow</title><rect class="rr-nonterm" x="182" y="100" width="135" height="30" rx="8"/><text class="rr-text" x="249.5" y="115" text-anchor="middle" dominant-baseline="central">FunctionArrow</text></g><path class="rr-track" d="M317 115 H540"/><path class="rr-track" d="M540 115 H552 Q568 115 568 99 V81 Q568 65 584 65"/></svg>
