<svg xmlns="http://www.w3.org/2000/svg" width="907" height="816" viewBox="0 0 907 816" role="img" aria-label="Railroad diagram for the stat rule"><style>.rr-track{fill:none;stroke:#6B7280;stroke-width:2.5}.rr-term{fill:#fff;stroke:#15B879;stroke-width:2.5}.rr-nonterm{fill:#F5F6F3;stroke:#16181D;stroke-width:2.5}.rr-text{fill:#16181D;font:14px 'Fira Code',ui-monospace,SFMono-Regular,Menlo,Consolas,monospace;font-feature-settings:"liga" 1,"calt" 1;}.rr-action-text{fill:#6B7280;font:14px 'Fira Code',ui-monospace,SFMono-Regular,Menlo,Consolas,monospace;font-style:italic;font-feature-settings:"liga" 1,"calt" 1;}.rr-cap{fill:#16181D}</style><circle class="rr-cap" cx="18" cy="33" r="4"/><circle class="rr-cap" cx="889" cy="33" r="4"/><path class="rr-track" d="M18 33 H34"/><path class="rr-track" d="M873 33 H889"/><path class="rr-track" d="M34 33 H62"/><rect class="rr-nonterm" x="62" y="18" width="85" height="30" rx="8"/><text class="rr-text" x="104.5" y="33" text-anchor="middle" dominant-baseline="central">varlist</text><path class="rr-track" d="M147 33 H171"/><rect class="rr-term" x="171" y="18" width="36" height="30" rx="15"/><text class="rr-text" x="189" y="33" text-anchor="middle" dominant-baseline="central">=</text><path class="rr-track" d="M207 33 H231"/><rect class="rr-nonterm" x="231" y="18" width="85" height="30" rx="8"/><text class="rr-text" x="273.5" y="33" text-anchor="middle" dominant-baseline="central">explist</text><path class="rr-track" d="M316 33 H845"/><path class="rr-track" d="M845 33 H873"/><path class="rr-track" d="M18 33 Q34 33 34 49 V67 Q34 83 50 83 H62"/><rect class="rr-nonterm" x="62" y="68" width="53" height="30" rx="8"/><text class="rr-text" x="88.5" y="83" text-anchor="middle" dominant-baseline="central">var</text><path class="rr-track" d="M115 83 H139"/><rect class="rr-nonterm" x="139" y="68" width="110" height="30" rx="8"/><text class="rr-text" x="194" y="83" text-anchor="middle" dominant-baseline="central">compoundop</text><path class="rr-track" d="M249 83 H273"/><rect class="rr-nonterm" x="273" y="68" width="53" height="30" rx="8"/><text class="rr-text" x="299.5" y="83" text-anchor="middle" dominant-baseline="central">exp</text><path class="rr-track" d="M326 83 H845"/><path class="rr-track" d="M845 83 H857 Q873 83 873 67 V49 Q873 33 889 33"/><path class="rr-track" d="M18 33 Q34 33 34 49 V117 Q34 133 50 133 H62"/><rect class="rr-nonterm" x="62" y="118" width="126" height="30" rx="8"/><text class="rr-text" x="125" y="133" text-anchor="middle" dominant-baseline="central">functioncall</text><path class="rr-track" d="M188 133 H845"/><path class="rr-track" d="M845 133 H857 Q873 133 873 117 V49 Q873 33 889 33"/><path class="rr-track" d="M18 33 Q34 33 34 49 V167 Q34 183 50 183 H62"/><rect class="rr-term" x="62" y="168" width="44" height="30" rx="15"/><text class="rr-text" x="84" y="183" text-anchor="middle" dominant-baseline="central">do</text><path class="rr-track" d="M106 183 H130"/><rect class="rr-nonterm" x="130" y="168" width="69" height="30" rx="8"/><text class="rr-text" x="164.5" y="183" text-anchor="middle" dominant-baseline="central">block</text><path class="rr-track" d="M199 183 H223"/><rect class="rr-term" x="223" y="168" width="53" height="30" rx="15"/><text class="rr-text" x="249.5" y="183" text-anchor="middle" dominant-baseline="central">end</text><path class="rr-track" d="M276 183 H845"/><path class="rr-track" d="M845 183 H857 Q873 183 873 167 V49 Q873 33 889 33"/><path class="rr-track" d="M18 33 Q34 33 34 49 V217 Q34 233 50 233 H62"/><rect class="rr-term" x="62" y="218" width="69" height="30" rx="15"/><text class="rr-text" x="96.5" y="233" text-anchor="middle" dominant-baseline="central">while</text><path class="rr-track" d="M131 233 H155"/><rect class="rr-nonterm" x="155" y="218" width="53" height="30" rx="8"/><text class="rr-text" x="181.5" y="233" text-anchor="middle" dominant-baseline="central">exp</text><path class="rr-track" d="M208 233 H232"/><rect class="rr-term" x="232" y="218" width="44" height="30" rx="15"/><text class="rr-text" x="254" y="233" text-anchor="middle" dominant-baseline="central">do</text><path class="rr-track" d="M276 233 H300"/><rect class="rr-nonterm" x="300" y="218" width="69" height="30" rx="8"/><text class="rr-text" x="334.5" y="233" text-anchor="middle" dominant-baseline="central">block</text><path class="rr-track" d="M369 233 H393"/><rect class="rr-term" x="393" y="218" width="53" height="30" rx="15"/><text class="rr-text" x="419.5" y="233" text-anchor="middle" dominant-baseline="central">end</text><path class="rr-track" d="M446 233 H845"/><path class="rr-track" d="M845 233 H857 Q873 233 873 217 V49 Q873 33 889 33"/><path class="rr-track" d="M18 33 Q34 33 34 49 V267 Q34 283 50 283 H62"/><rect class="rr-term" x="62" y="268" width="77" height="30" rx="15"/><text class="rr-text" x="100.5" y="283" text-anchor="middle" dominant-baseline="central">repeat</text><path class="rr-track" d="M139 283 H163"/><rect class="rr-nonterm" x="163" y="268" width="69" height="30" rx="8"/><text class="rr-text" x="197.5" y="283" text-anchor="middle" dominant-baseline="central">block</text><path class="rr-track" d="M232 283 H256"/><rect class="rr-term" x="256" y="268" width="69" height="30" rx="15"/><text class="rr-text" x="290.5" y="283" text-anchor="middle" dominant-baseline="central">until</text><path class="rr-track" d="M325 283 H349"/><rect class="rr-nonterm" x="349" y="268" width="53" height="30" rx="8"/><text class="rr-text" x="375.5" y="283" text-anchor="middle" dominant-baseline="central">exp</text><path class="rr-track" d="M402 283 H845"/><path class="rr-track" d="M845 283 H857 Q873 283 873 267 V49 Q873 33 889 33"/><path class="rr-track" d="M18 33 Q34 33 34 49 V317 Q34 333 50 333 H62"/><rect class="rr-term" x="62" y="318" width="44" height="30" rx="15"/><text class="rr-text" x="84" y="333" text-anchor="middle" dominant-baseline="central">if</text><path class="rr-track" d="M106 333 H130"/><rect class="rr-nonterm" x="130" y="318" width="53" height="30" rx="8"/><text class="rr-text" x="156.5" y="333" text-anchor="middle" dominant-baseline="central">exp</text><path class="rr-track" d="M183 333 H207"/><rect class="rr-term" x="207" y="318" width="61" height="30" rx="15"/><text class="rr-text" x="237.5" y="333" text-anchor="middle" dominant-baseline="central">then</text><path class="rr-track" d="M268 333 H292"/><rect class="rr-nonterm" x="292" y="318" width="69" height="30" rx="8"/><text class="rr-text" x="326.5" y="333" text-anchor="middle" dominant-baseline="central">block</text><path class="rr-track" d="M361 333 H385"/><rect class="rr-nonterm" x="385" y="318" width="118" height="30" rx="8"/><text class="rr-text" x="444" y="333" text-anchor="middle" dominant-baseline="central">ElseifBlock</text><path class="rr-track" d="M503 333 H527"/><rect class="rr-nonterm" x="527" y="318" width="102" height="30" rx="8"/><text class="rr-text" x="578" y="333" text-anchor="middle" dominant-baseline="central">ElseBlock</text><path class="rr-track" d="M629 333 H653"/><rect class="rr-term" x="653" y="318" width="53" height="30" rx="15"/><text class="rr-text" x="679.5" y="333" text-anchor="middle" dominant-baseline="central">end</text><path class="rr-track" d="M706 333 H845"/><path class="rr-track" d="M845 333 H857 Q873 333 873 317 V49 Q873 33 889 33"/><path class="rr-track" d="M18 33 Q34 33 34 49 V367 Q34 383 50 383 H62"/><rect class="rr-term" x="62" y="368" width="53" height="30" rx="15"/><text class="rr-text" x="88.5" y="383" text-anchor="middle" dominant-baseline="central">for</text><path class="rr-track" d="M115 383 H139"/><rect class="rr-nonterm" x="139" y="368" width="85" height="30" rx="8"/><text class="rr-text" x="181.5" y="383" text-anchor="middle" dominant-baseline="central">binding</text><path class="rr-track" d="M224 383 H248"/><rect class="rr-term" x="248" y="368" width="36" height="30" rx="15"/><text class="rr-text" x="266" y="383" text-anchor="middle" dominant-baseline="central">=</text><path class="rr-track" d="M284 383 H308"/><rect class="rr-nonterm" x="308" y="368" width="53" height="30" rx="8"/><text class="rr-text" x="334.5" y="383" text-anchor="middle" dominant-baseline="central">exp</text><path class="rr-track" d="M361 383 H385"/><rect class="rr-term" x="385" y="368" width="36" height="30" rx="15"/><text class="rr-text" x="403" y="383" text-anchor="middle" dominant-baseline="central">,</text><path class="rr-track" d="M421 383 H445"/><rect class="rr-nonterm" x="445" y="368" width="53" height="30" rx="8"/><text class="rr-text" x="471.5" y="383" text-anchor="middle" dominant-baseline="central">exp</text><path class="rr-track" d="M498 383 H522"/><rect class="rr-nonterm" x="522" y="368" width="85" height="30" rx="8"/><text class="rr-text" x="564.5" y="383" text-anchor="middle" dominant-baseline="central">ForStep</text><path class="rr-track" d="M607 383 H631"/><rect class="rr-term" x="631" y="368" width="44" height="30" rx="15"/><text class="rr-text" x="653" y="383" text-anchor="middle" dominant-baseline="central">do</text><path class="rr-track" d="M675 383 H699"/><rect class="rr-nonterm" x="699" y="368" width="69" height="30" rx="8"/><text class="rr-text" x="733.5" y="383" text-anchor="middle" dominant-baseline="central">block</text><path class="rr-track" d="M768 383 H792"/><rect class="rr-term" x="792" y="368" width="53" height="30" rx="15"/><text class="rr-text" x="818.5" y="383" text-anchor="middle" dominant-baseline="central">end</text><path class="rr-track" d="M845 383 H857 Q873 383 873 367 V49 Q873 33 889 33"/><path class="rr-track" d="M18 33 Q34 33 34 49 V417 Q34 433 50 433 H62"/><rect class="rr-term" x="62" y="418" width="53" height="30" rx="15"/><text class="rr-text" x="88.5" y="433" text-anchor="middle" dominant-baseline="central">for</text><path class="rr-track" d="M115 433 H139"/><rect class="rr-nonterm" x="139" y="418" width="118" height="30" rx="8"/><text class="rr-text" x="198" y="433" text-anchor="middle" dominant-baseline="central">bindinglist</text><path class="rr-track" d="M257 433 H281"/><rect class="rr-term" x="281" y="418" width="44" height="30" rx="15"/><text class="rr-text" x="303" y="433" text-anchor="middle" dominant-baseline="central">in</text><path class="rr-track" d="M325 433 H349"/><rect class="rr-nonterm" x="349" y="418" width="85" height="30" rx="8"/><text class="rr-text" x="391.5" y="433" text-anchor="middle" dominant-baseline="central">explist</text><path class="rr-track" d="M434 433 H458"/><rect class="rr-term" x="458" y="418" width="44" height="30" rx="15"/><text class="rr-text" x="480" y="433" text-anchor="middle" dominant-baseline="central">do</text><path class="rr-track" d="M502 433 H526"/><rect class="rr-nonterm" x="526" y="418" width="69" height="30" rx="8"/><text class="rr-text" x="560.5" y="433" text-anchor="middle" dominant-baseline="central">block</text><path class="rr-track" d="M595 433 H619"/><rect class="rr-term" x="619" y="418" width="53" height="30" rx="15"/><text class="rr-text" x="645.5" y="433" text-anchor="middle" dominant-baseline="central">end</text><path class="rr-track" d="M672 433 H845"/><path class="rr-track" d="M845 433 H857 Q873 433 873 417 V49 Q873 33 889 33"/><path class="rr-track" d="M18 33 Q34 33 34 49 V467 Q34 483 50 483 H62"/><rect class="rr-nonterm" x="62" y="468" width="110" height="30" rx="8"/><text class="rr-text" x="117" y="483" text-anchor="middle" dominant-baseline="central">attributes</text><path class="rr-track" d="M172 483 H196"/><rect class="rr-term" x="196" y="468" width="94" height="30" rx="15"/><text class="rr-text" x="243" y="483" text-anchor="middle" dominant-baseline="central">function</text><path class="rr-track" d="M290 483 H314"/><rect class="rr-nonterm" x="314" y="468" width="94" height="30" rx="8"/><text class="rr-text" x="361" y="483" text-anchor="middle" dominant-baseline="central">funcname</text><path class="rr-track" d="M408 483 H432"/><rect class="rr-nonterm" x="432" y="468" width="94" height="30" rx="8"/><text class="rr-text" x="479" y="483" text-anchor="middle" dominant-baseline="central">funcbody</text><path class="rr-track" d="M526 483 H845"/><path class="rr-track" d="M845 483 H857 Q873 483 873 467 V49 Q873 33 889 33"/><path class="rr-track" d="M18 33 Q34 33 34 49 V517 Q34 533 50 533 H62"/><rect class="rr-nonterm" x="62" y="518" width="110" height="30" rx="8"/><text class="rr-text" x="117" y="533" text-anchor="middle" dominant-baseline="central">attributes</text><path class="rr-track" d="M172 533 H196"/><rect class="rr-term" x="196" y="518" width="69" height="30" rx="15"/><text class="rr-text" x="230.5" y="533" text-anchor="middle" dominant-baseline="central">local</text><path class="rr-track" d="M265 533 H289"/><rect class="rr-term" x="289" y="518" width="94" height="30" rx="15"/><text class="rr-text" x="336" y="533" text-anchor="middle" dominant-baseline="central">function</text><path class="rr-track" d="M383 533 H407"/><rect class="rr-term" x="407" y="518" width="61" height="30" rx="15"/><text class="rr-text" x="437.5" y="533" text-anchor="middle" dominant-baseline="central">NAME</text><path class="rr-track" d="M468 533 H492"/><rect class="rr-nonterm" x="492" y="518" width="94" height="30" rx="8"/><text class="rr-text" x="539" y="533" text-anchor="middle" dominant-baseline="central">funcbody</text><path class="rr-track" d="M586 533 H845"/><path class="rr-track" d="M845 533 H857 Q873 533 873 517 V49 Q873 33 889 33"/><path class="rr-track" d="M18 33 Q34 33 34 49 V567 Q34 583 50 583 H62"/><rect class="rr-term" x="62" y="568" width="69" height="30" rx="15"/><text class="rr-text" x="96.5" y="583" text-anchor="middle" dominant-baseline="central">local</text><path class="rr-track" d="M131 583 H155"/><rect class="rr-nonterm" x="155" y="568" width="118" height="30" rx="8"/><text class="rr-text" x="214" y="583" text-anchor="middle" dominant-baseline="central">bindinglist</text><path class="rr-track" d="M273 583 H297"/><rect class="rr-nonterm" x="297" y="568" width="102" height="30" rx="8"/><text class="rr-text" x="348" y="583" text-anchor="middle" dominant-baseline="central">LocalInit</text><path class="rr-track" d="M399 583 H845"/><path class="rr-track" d="M845 583 H857 Q873 583 873 567 V49 Q873 33 889 33"/><path class="rr-track" d="M18 33 Q34 33 34 49 V617 Q34 633 50 633 H62"/><rect class="rr-term" x="62" y="618" width="69" height="30" rx="15"/><text class="rr-text" x="96.5" y="633" text-anchor="middle" dominant-baseline="central">const</text><path class="rr-track" d="M131 633 H155"/><rect class="rr-term" x="155" y="618" width="94" height="30" rx="15"/><text class="rr-text" x="202" y="633" text-anchor="middle" dominant-baseline="central">function</text><path class="rr-track" d="M249 633 H273"/><rect class="rr-term" x="273" y="618" width="61" height="30" rx="15"/><text class="rr-text" x="303.5" y="633" text-anchor="middle" dominant-baseline="central">NAME</text><path class="rr-track" d="M334 633 H358"/><rect class="rr-nonterm" x="358" y="618" width="94" height="30" rx="8"/><text class="rr-text" x="405" y="633" text-anchor="middle" dominant-baseline="central">funcbody</text><path class="rr-track" d="M452 633 H845"/><path class="rr-track" d="M845 633 H857 Q873 633 873 617 V49 Q873 33 889 33"/><path class="rr-track" d="M18 33 Q34 33 34 49 V667 Q34 683 50 683 H62"/><rect class="rr-term" x="62" y="668" width="69" height="30" rx="15"/><text class="rr-text" x="96.5" y="683" text-anchor="middle" dominant-baseline="central">const</text><path class="rr-track" d="M131 683 H155"/><rect class="rr-nonterm" x="155" y="668" width="118" height="30" rx="8"/><text class="rr-text" x="214" y="683" text-anchor="middle" dominant-baseline="central">bindinglist</text><path class="rr-track" d="M273 683 H297"/><rect class="rr-term" x="297" y="668" width="36" height="30" rx="15"/><text class="rr-text" x="315" y="683" text-anchor="middle" dominant-baseline="central">=</text><path class="rr-track" d="M333 683 H357"/><rect class="rr-nonterm" x="357" y="668" width="85" height="30" rx="8"/><text class="rr-text" x="399.5" y="683" text-anchor="middle" dominant-baseline="central">explist</text><path class="rr-track" d="M442 683 H845"/><path class="rr-track" d="M845 683 H857 Q873 683 873 667 V49 Q873 33 889 33"/><path class="rr-track" d="M18 33 Q34 33 34 49 V717 Q34 733 50 733 H62"/><rect class="rr-term" x="62" y="718" width="77" height="30" rx="15"/><text class="rr-text" x="100.5" y="733" text-anchor="middle" dominant-baseline="central">export</text><path class="rr-track" d="M139 733 H163"/><rect class="rr-term" x="163" y="718" width="61" height="30" rx="15"/><text class="rr-text" x="193.5" y="733" text-anchor="middle" dominant-baseline="central">type</text><path class="rr-track" d="M224 733 H248"/><rect class="rr-term" x="248" y="718" width="61" height="30" rx="15"/><text class="rr-text" x="278.5" y="733" text-anchor="middle" dominant-baseline="central">NAME</text><path class="rr-track" d="M309 733 H333"/><rect class="rr-nonterm" x="333" y="718" width="208" height="30" rx="8"/><text class="rr-text" x="437" y="733" text-anchor="middle" dominant-baseline="central">TypeParamsWithDefaults</text><path class="rr-track" d="M541 733 H565"/><rect class="rr-term" x="565" y="718" width="36" height="30" rx="15"/><text class="rr-text" x="583" y="733" text-anchor="middle" dominant-baseline="central">=</text><path class="rr-track" d="M601 733 H625"/><rect class="rr-nonterm" x="625" y="718" width="61" height="30" rx="8"/><text class="rr-text" x="655.5" y="733" text-anchor="middle" dominant-baseline="central">Type</text><path class="rr-track" d="M686 733 H845"/><path class="rr-track" d="M845 733 H857 Q873 733 873 717 V49 Q873 33 889 33"/><path class="rr-track" d="M18 33 Q34 33 34 49 V767 Q34 783 50 783 H62"/><rect class="rr-term" x="62" y="768" width="77" height="30" rx="15"/><text class="rr-text" x="100.5" y="783" text-anchor="middle" dominant-baseline="central">export</text><path class="rr-track" d="M139 783 H163"/><rect class="rr-term" x="163" y="768" width="61" height="30" rx="15"/><text class="rr-text" x="193.5" y="783" text-anchor="middle" dominant-baseline="central">type</text><path class="rr-track" d="M224 783 H248"/><rect class="rr-term" x="248" y="768" width="94" height="30" rx="15"/><text class="rr-text" x="295" y="783" text-anchor="middle" dominant-baseline="central">function</text><path class="rr-track" d="M342 783 H366"/><rect class="rr-term" x="366" y="768" width="61" height="30" rx="15"/><text class="rr-text" x="396.5" y="783" text-anchor="middle" dominant-baseline="central">NAME</text><path class="rr-track" d="M427 783 H451"/><rect class="rr-nonterm" x="451" y="768" width="94" height="30" rx="8"/><text class="rr-text" x="498" y="783" text-anchor="middle" dominant-baseline="central">funcbody</text><path class="rr-track" d="M545 783 H845"/><path class="rr-track" d="M845 783 H857 Q873 783 873 767 V49 Q873 33 889 33"/></svg>
