<svg xmlns="http://www.w3.org/2000/svg" width="268" height="286" viewBox="0 0 268 286" role="img" aria-label="Railroad diagram for the ebnfSuffix rule"><style>.rr-track{fill:none;stroke:#6B7280;stroke-width:2.5}.rr-term{fill:#fff;stroke:#15B879;stroke-width:2.5}.rr-nonterm{fill:#F5F6F3;stroke:#16181D;stroke-width:2.5}.rr-text{fill:#16181D;font:14px 'Fira Code',ui-monospace,SFMono-Regular,Menlo,Consolas,monospace;font-feature-settings:"liga" 1,"calt" 1;}.rr-action-text{fill:#6B7280;font:14px 'Fira Code',ui-monospace,SFMono-Regular,Menlo,Consolas,monospace;font-style:italic;font-feature-settings:"liga" 1,"calt" 1;}.rr-cap{fill:#16181D}.rr-arrow{fill:#6B7280}</style><circle class="rr-cap" cx="18" cy="73" r="4"/><circle class="rr-cap" cx="250" cy="73" r="4"/><path class="rr-track" d="M18 73 H34"/><path class="rr-track" d="M234 73 H250"/><path class="rr-track" d="M34 73 H62"/><g class="rr-node rr-node-term" data-rr-kind="terminal" data-rr-label="?"><title>terminal: ?</title><rect class="rr-term" x="62" y="58" width="36" height="30" rx="15"/><text class="rr-text" x="80" y="73" text-anchor="middle" dominant-baseline="central">?</text></g><path class="rr-track" d="M98 73 H122"/><g class="rr-node rr-node-term" data-rr-kind="terminal" data-rr-label="?"><title>terminal: ?</title><rect class="rr-term" x="146" y="58" width="36" height="30" rx="15"/><text class="rr-text" x="164" y="73" text-anchor="middle" dominant-baseline="central">?</text></g><path class="rr-track" d="M122 73 Q134 73 134 61 V45 Q134 33 146 33 H182 Q194 33 194 45 V61 Q194 73 206 73"/><path class="rr-track" d="M206 73 H234"/><path class="rr-track" d="M18 73 Q34 73 34 89 V147 Q34 163 50 163 H62"/><g class="rr-node rr-node-term" data-rr-kind="terminal" data-rr-label="*"><title>terminal: *</title><rect class="rr-term" x="62" y="148" width="36" height="30" rx="15"/><text class="rr-text" x="80" y="163" text-anchor="middle" dominant-baseline="central">*</text></g><path class="rr-track" d="M98 163 H122"/><g class="rr-node rr-node-term" data-rr-kind="terminal" data-rr-label="?"><title>terminal: ?</title><rect class="rr-term" x="146" y="148" width="36" height="30" rx="15"/><text class="rr-text" x="164" y="163" text-anchor="middle" dominant-baseline="central">?</text></g><path class="rr-track" d="M122 163 Q134 163 134 151 V135 Q134 123 146 123 H182 Q194 123 194 135 V151 Q194 163 206 163"/><path class="rr-track" d="M206 163 H218 Q234 163 234 147 V89 Q234 73 250 73"/><path class="rr-track" d="M18 73 Q34 73 34 89 V237 Q34 253 50 253 H62"/><g class="rr-node rr-node-term" data-rr-kind="terminal" data-rr-label="+"><title>terminal: +</title><rect class="rr-term" x="62" y="238" width="36" height="30" rx="15"/><text class="rr-text" x="80" y="253" text-anchor="middle" dominant-baseline="central">+</text></g><path class="rr-track" d="M98 253 H122"/><g class="rr-node rr-node-term" data-rr-kind="terminal" data-rr-label="?"><title>terminal: ?</title><rect class="rr-term" x="146" y="238" width="36" height="30" rx="15"/><text class="rr-text" x="164" y="253" text-anchor="middle" dominant-baseline="central">?</text></g><path class="rr-track" d="M122 253 Q134 253 134 241 V225 Q134 213 146 213 H182 Q194 213 194 225 V241 Q194 253 206 253"/><path class="rr-track" d="M206 253 H218 Q234 253 234 237 V89 Q234 73 250 73"/></svg>
