<svg xmlns="http://www.w3.org/2000/svg" width="316" height="96" viewBox="0 0 316 96" role="img" aria-label="Railroad diagram for the SetBody rule"><style>.rr-track{fill:none;stroke:#6B7280;stroke-width:2}.rr-term{fill:#fff;stroke:#15B879;stroke-width:2}.rr-nonterm{fill:#F5F6F3;stroke:#16181D;stroke-width:2}.rr-text{fill:#16181D;font:13px ui-monospace,SFMono-Regular,Menlo,Consolas,monospace}.rr-cap{fill:#16181D}</style><circle class="rr-cap" cx="14" cy="27" r="3"/><circle class="rr-cap" cx="302" cy="27" r="3"/><path class="rr-track" d="M14 27 H26"/><path class="rr-track" d="M290 27 H302"/><path class="rr-track" d="M26 27 H48"/><rect class="rr-nonterm" x="48" y="14" width="77" height="26" rx="5"/><text class="rr-text" x="86.5" y="27" text-anchor="middle" dominant-baseline="central">SetItem</text><path class="rr-track" d="M125 27 H268"/><path class="rr-track" d="M268 27 H290"/><path class="rr-track" d="M26 27 V63 Q26 69 32 69 H48"/><rect class="rr-nonterm" x="48" y="56" width="77" height="26" rx="5"/><text class="rr-text" x="86.5" y="69" text-anchor="middle" dominant-baseline="central">SetBody</text><path class="rr-track" d="M125 69 H143"/><rect class="rr-term" x="143" y="56" width="30" height="26" rx="13"/><text class="rr-text" x="158" y="69" text-anchor="middle" dominant-baseline="central">|</text><path class="rr-track" d="M173 69 H191"/><rect class="rr-nonterm" x="191" y="56" width="77" height="26" rx="5"/><text class="rr-text" x="229.5" y="69" text-anchor="middle" dominant-baseline="central">SetItem</text><path class="rr-track" d="M268 69 H284 Q290 69 290 63 V27"/></svg>
